<?xml version="1.0" encoding="UTF-8"?>
<!DOCTYPE svg PUBLIC "-//W3C//DTD SVG 1.1//EN" "http://www.w3.org/Graphics/SVG/1.1/DTD/svg11.dtd">
<!-- Creator: CorelDRAW -->
<svg xmlns="http://www.w3.org/2000/svg" xml:space="preserve" width="11in" height="5in" style="shape-rendering:geometricPrecision; text-rendering:geometricPrecision; image-rendering:optimizeQuality; fill-rule:evenodd; clip-rule:evenodd"
viewBox="0 0 11 5">
 <defs>
  <style type="text/css">
   <![CDATA[
    .str0 {stroke:#1F1A17;stroke-width:0.003}
    .fil2 {fill:none}
    .fil1 {fill:#1F1A17}
    .fil0 {fill:#1F1A17;fill-rule:nonzero}
   ]]>
  </style>
 </defs>
 <g id="Layer_x0020_1">
  <metadata id="CorelCorpID_0Corel-Layer"/>
  <path class="fil0" d="M1.97726 2.60019c-0.0244173,-0.035748 -0.053248,-0.0647559 -0.0870118,-0.0879567 -0.0350433,-0.0244803 -0.075311,-0.0407677 -0.119902,-0.0495984 -0.044689,-0.00944094 -0.092437,-0.00978346 -0.14285,-0.00171654 -0.0680472,0.0108858 -0.126937,0.0350433 -0.176102,0.0730039 -0.0496378,0.0380394 -0.0883583,0.0878386 -0.116563,0.150079 -0.0286772,0.0623268 -0.0461535,0.13513 -0.0532913,0.219197 -0.00722441,0.0834567 -0.00275984,0.177323 0.0137165,0.280319 0.0167677,0.104803 0.042,0.196571 0.0750945,0.274815 0.0330039,0.0776339 0.0729055,0.141874 0.119413,0.190945 0.0465945,0.0496575 0.0993307,0.0842126 0.15728,0.104429 0.0584449,0.0201299 0.120465,0.0249449 0.186555,0.014374 0.108181,-0.0173071 0.187787,-0.0625984 0.239417,-0.135339 0.0260945,-0.0364724 0.0443346,-0.0782126 0.0548701,-0.124972l0.187598 -0.0300157c-0.00333071,0.030437 -0.00859449,0.0596024 -0.015811,0.0874016 -0.0191378,0.0718543 -0.0482165,0.134846 -0.0883268,0.188555 -0.0401024,0.0537047 -0.0898583,0.0972874 -0.148791,0.130673 -0.0594094,0.0334488 -0.125539,0.0563228 -0.197976,0.0679094 -0.0939961,0.0150394 -0.181854,0.0088189 -0.263953,-0.0179685 -0.082685,-0.0273071 -0.156205,-0.0726575 -0.221256,-0.137185 -0.0655354,-0.0644449 -0.120748,-0.145894 -0.166594,-0.244205 -0.0453622,-0.098374 -0.0786181,-0.212205 -0.099122,-0.340366 -0.0204055,-0.127551 -0.0242244,-0.24548 -0.0119134,-0.353693 0.0127953,-0.108303 0.0398425,-0.202913 0.0820945,-0.283992 0.0417717,-0.0809961 0.0974724,-0.147024 0.167512,-0.198764 0.0696457,-0.051063 0.151177,-0.0843819 0.245173,-0.0994173 0.0714685,-0.0114331 0.140543,-0.00957874 0.207224,0.00554331 0.0666811,0.0151299 0.12765,0.0416142 0.182311,0.0789331 0.0551693,0.0372362 0.103051,0.0854606 0.143063,0.144165 0.0140787,0.020374 0.0267874,0.0418819 0.0382362,0.064437l-0.190094 0.0304094zm2.23936 0.946957l-0.818472 0.130937 -0.259051 -1.61929 0.173287 -0.0277244 0.228106 1.42587 0.645185 -0.103217 0.0309449 0.193429zm1.54511 -0.927083l-0.353244 -0.71428 -0.10348 0.787346 0.456724 -0.0730669zm0.508921 0.59848l-0.197756 0.0316378 -0.232559 -0.46826 -0.555606 0.0888858 -0.0675276 0.516268 -0.184551 0.0295236 0.250063 -1.70074 0.187488 -0.0299961 0.800449 1.53268zm0.956012 -0.152941l-0.177693 0.0284291 -0.259051 -1.6193 0.177693 -0.0284252 0.259051 1.61929zm2.60236 -0.416323l-0.167902 0.0268622 -0.50726 -1.33146 -0.156594 1.43766 -0.15811 0.0252953 -0.596791 -1.31713 -0.0665669 1.42326 -0.165449 0.0264685 0.0278622 -1.66519 0.261398 -0.041815 0.57565 1.29165 0.143949 -1.40677 0.26385 -0.0422087 0.545965 1.57339z"/>
  <path class="fil0" d="M1.88568 2.66269c-0.00855512,-0.0125276 -0.0175394,-0.0235276 -0.0269803,-0.0330591 -0.0103504,-0.0104488 -0.0206575,-0.0191772 -0.0309528,-0.026252l-0.000893701 -0.000594488 -6.69291e-005 9.44882e-005c-0.00331102,-0.00231102 -0.00629921,-0.00427953 -0.00894882,-0.00588583l-0.000433071 0c-0.00283858,-0.00172835 -0.0060315,-0.00352362 -0.00954724,-0.00537008 -0.0173031,-0.00910236 -0.0369961,-0.0157362 -0.0587795,-0.0200472l-0.000866142 -0.000433071 -0.00308661 -0.000637795 1.9685e-005 -9.05512e-005c-0.00167717,-0.000307087 -0.00583465,-0.000917323 -0.0123937,-0.00185039 -0.00225591,-0.000318898 -0.00664567,-0.000767717 -0.0131496,-0.00132677 -0.0242953,-0.00209843 -0.0492441,-0.00102362 -0.0747441,0.00305512l-0.000153543 0 3.93701e-006 2.3622e-005c-0.00791339,0.00126772 -0.0151024,0.00262205 -0.0215197,0.00405906 -0.00630709,0.00140945 -0.0129843,0.00314567 -0.0199961,0.00519291 -0.0316417,0.00924803 -0.0597283,0.0232205 -0.0840906,0.0420276l-0.000433071 0.000433071c-0.0167677,0.0128465 -0.0320709,0.0281693 -0.0459213,0.046 -0.0142441,0.0183386 -0.0265039,0.0388386 -0.0367913,0.0615433l-0.000433071 0.000437008c-0.0113543,0.024685 -0.0205945,0.0518268 -0.0277795,0.0814803 -0.00718898,0.0296732 -0.0123425,0.0632795 -0.0155276,0.100823l-0.000409449 0.000409449 0.000370079 3.14961e-005c-0.00127953,0.0149016 -0.00205906,0.0253504 -0.00232677,0.0313189 -0.000570866,0.0126102 -0.000889764,0.0234449 -0.000948819,0.0325157 -0.000397638,0.0579606 0.00481102,0.121299 0.0157283,0.189567l2.3622e-005 0.000145669c0.00182677,0.0114252 0.00420472,0.0248622 0.0071063,0.0402047 0.0013189,0.00697638 0.00404724,0.0198386 0.00809449,0.0382244 0.0142717,0.0647913 0.0317874,0.121591 0.0523386,0.170268l0.000153543 -6.69291e-005 2.3622e-005 5.51181e-005c0.00396063,0.00931102 0.00814173,0.018622 0.0125315,0.0279055 0.00419291,0.00887008 0.00850394,0.0175 0.0129055,0.0258622 0.0218465,0.0415 0.0459764,0.0764094 0.072252,0.104134l0.000866142 0.000870079 5.51181e-005 5.90551e-005 -1.1811e-005 1.1811e-005c0.00486614,0.00516142 0.00977953,0.0100827 0.0147323,0.0147441 0.00605906,0.00570079 0.0110669,0.010185 0.0149921,0.0134213 0.0255315,0.0210827 0.0530472,0.0366575 0.0822874,0.0469291l8.66142e-005 -0.000251969c0.0205,0.00706299 0.041374,0.0114213 0.0626339,0.0130591 0.0232126,0.00179134 0.0467165,0.000783465 0.0705354,-0.00302362 0.040748,-0.00651575 0.0752598,-0.0178228 0.103587,-0.0338622 0.0255984,-0.0144921 0.0465591,-0.0332913 0.0629173,-0.0563386l5.90551e-005 -8.26772e-005c0.00256693,-0.00359449 0.00491732,-0.0070748 0.00701969,-0.0104173 0.00137795,-0.00218898 0.0034252,-0.00574803 0.00609843,-0.0106024 0.0107362,-0.0195039 0.0186969,-0.0408504 0.0238976,-0.0639409l0.0164921 -0.0731929 0.0742165 -0.011874 0.187598 -0.0300157 0.143319 -0.0229331 -0.0157126 0.144028 -2.3622e-005 0.000216535 0 0.000433071c-0.000338583,0.00309055 -0.000279528,0.0014685 -0.00195276,0.0144331 -0.00194094,0.0150394 -0.000925197,0.0092126 -0.00174016,0.0147165 -0.00356299,0.0239685 -0.00861417,0.0485472 -0.0151339,0.0736614l0 0.000433071c-0.011122,0.0417559 -0.0254803,0.0816811 -0.0432441,0.119744 -0.0183189,0.039252 -0.039378,0.0749567 -0.063311,0.107004l-3.93701e-006 -3.93701e-006 -2.3622e-005 4.33071e-005c-0.00389764,0.00521654 -0.0111535,0.0141339 -0.021752,0.0267323 -0.00694488,0.00825197 -0.0145827,0.0167756 -0.022878,0.0255394l0 0.000437008c-0.0401732,0.0424252 -0.0863937,0.0783976 -0.138421,0.107874l-0.000610236 0.000405512 5.11811e-005 9.44882e-005c-0.00846063,0.00475984 -0.0186378,0.0101024 -0.0305551,0.0160197 -0.00962992,0.00478346 -0.0199331,0.00957087 -0.0308976,0.0143346 -0.053878,0.0234252 -0.111705,0.0402244 -0.173291,0.0500748 -0.0557756,0.00892126 -0.109484,0.0115551 -0.161177,0.00800394 -0.053248,-0.00365748 -0.104717,-0.0136575 -0.154425,-0.029878l-0.000433071 0c-0.0487677,-0.0161063 -0.0956299,-0.0380276 -0.140677,-0.0659173 -0.0441496,-0.0273346 -0.0853071,-0.0598701 -0.123547,-0.0977441l-0.00034252 -0.000338583 -9.44882e-005 -9.44882e-005c-0.0379803,-0.0374016 -0.0726496,-0.0792362 -0.104134,-0.125461 -0.0316024,-0.0464055 -0.0599055,-0.0965472 -0.0850276,-0.150429l-0.000240157 -0.000964567c-0.00755118,-0.0163858 -0.0143268,-0.0319173 -0.020311,-0.0465827l0.000374016 -0.000149606c-0.0068189,-0.0167047 -0.0130236,-0.0327874 -0.0185748,-0.0482087 -0.0301299,-0.0836457 -0.0532402,-0.175138 -0.0690512,-0.273972l-0.000125984 -0.000787402c-0.00266142,-0.016685 -0.00533071,-0.0356614 -0.00799606,-0.0568661 -0.00248819,-0.0197795 -0.00451181,-0.0382205 -0.00605906,-0.0552992 -0.00870866,-0.0959213 -0.0081811,-0.186028 0.00139764,-0.270256l0 -0.000866142c0.00690157,-0.0584213 0.0181614,-0.114929 0.0339094,-0.169567 0.0161457,-0.0560157 0.0360787,-0.106898 0.0599055,-0.152622l0.000177165 9.44882e-005c0.0243228,-0.0471024 0.0532638,-0.0905512 0.0868661,-0.130413 0.033878,-0.040189 0.0715394,-0.075563 0.11302,-0.106205l0.000433071 -0.000433071c0.0424528,-0.031126 0.0882047,-0.0567126 0.137331,-0.0766732 0.0479134,-0.0194646 0.0999016,-0.0337362 0.15602,-0.0427087l0.000909449 -0.000145669c0.0134449,-0.00212598 0.0252756,-0.00374409 0.0354724,-0.00483858 0.011437,-0.00122835 0.0231772,-0.00217717 0.0351969,-0.00284252 0.0603189,-0.00334646 0.119433,0.00154724 0.177315,0.0146732l0.000433071 0 0.000102362 2.3622e-005 -2.3622e-005 9.44882e-005c0.0126929,0.00288189 0.0236575,0.00562992 0.0328937,0.00822835 0.011122,0.00312992 0.0220079,0.00649606 0.032622,0.0100866 0.0547756,0.0185315 0.106028,0.0440551 0.153476,0.076315l0.000129921 -0.000192913 3.54331e-005 2.3622e-005 0.000437008 0.000437008c0.0054685,0.00368898 0.0146575,0.010437 0.0275079,0.020189 0.0117244,0.0088937 0.0206063,0.0159094 0.0266496,0.0210433 0.0444488,0.037752 0.084,0.0819764 0.118382,0.132421l-9.44882e-005 6.29921e-005c0.00915354,0.0132717 0.017185,0.0257441 0.0241024,0.0374173 0.00715748,0.0120709 0.0143622,0.0252756 0.0216063,0.0395433l0.0686654 0.135248 -0.15026 0.0240394 -0.190094 0.0304094 -0.0693465 0.0110906 -0.0395945 -0.0579646zm2.3483 0.993831l-0.818472 0.130937 -0.10922 0.0174724 -0.0175157 -0.109484 -0.259051 -1.61929 -0.0174724 -0.109217 0.109484 -0.0175197 0.173287 -0.0277244 0.109224 -0.0174724 0.0175118 0.109484 0.210591 1.31638 0.535965 -0.0857441 0.109224 -0.0174764 0.0175118 0.109488 0.0309449 0.193429 0.0174764 0.10922 -0.109488 0.0175157zm1.36178 -1.12206l-0.124988 -0.252732 -0.0366142 0.278587 0.161602 -0.0258543zm-0.224929 -0.654976l0.069626 -0.0115591 -0.0314055 -0.0601299 -0.0283465 0.00453543 -0.00987402 0.0671535zm0.917189 1.44843l-0.197756 0.0316378 -0.0804016 0.0128622 -0.0363504 -0.0731929 -0.196209 -0.395067 -0.393484 0.0629488 -0.0568031 0.434291 -0.0107205 0.0819764 -0.0817244 0.0130748 -0.184551 0.0295236 -0.149118 0.0238543 0.0219488 -0.149287 0.250063 -1.70074 0.0118268 -0.0804134 0.0806181 -0.0129016 0.187488 -0.0299961 0.0785157 -0.0125591 0.036937 0.0707165 0.800449 1.53268 0.0711732 0.136287 -0.151902 0.0243031zm0.956012 -0.152941l-0.177693 0.0284291 -0.109224 0.0174724 -0.0175118 -0.109484 -0.259051 -1.6193 -0.0174764 -0.10922 0.109488 -0.0175157 0.177693 -0.0284252 0.10922 -0.0174685 0.0175157 0.10948 0.259051 1.61929 0.0174724 0.109217 -0.109484 0.0175197zm2.60236 -0.416323l-0.167902 0.0268622 -0.0890472 0.0142441 -0.0320472 -0.084122 -0.343213 -0.900862 -0.106665 0.979287 -0.0091811 0.0842598 -0.0837008 0.0133937 -0.15811 0.0252953 -0.0835276 0.0133622 -0.0349606 -0.0771654 -0.406535 -0.897232 -0.0450197 0.962559 -0.00422835 0.0903425 -0.0890866 0.0142559 -0.165449 0.0264685 -0.130248 0.0208346 0.00220866 -0.131945 0.0278622 -1.66519 0.00155512 -0.0929567 0.0917598 -0.0146811 0.261398 -0.041815 0.083878 -0.0134173 0.0346102 0.0776535 0.406567 0.912252 0.101661 -0.99352 0.00865748 -0.0846142 0.0842244 -0.0134764 0.26385 -0.0422087 0.0914291 -0.014626 0.0305315 0.0879764 0.545965 1.57339 0.0432087 0.124528 -0.130445 0.0208701zm-0.73689 -1.43424l0.136551 -0.0177244 -0.0370591 -0.106799 -0.0881929 0.0141102 -0.0112992 0.110413zm-0.211398 1.34455l0.0131693 -0.120921 -0.0633622 0.0101496 0.0501929 0.110772zm-0.752661 -1.18588l0.132878 -0.0255906 -0.0452205 -0.101476 -0.0857598 0.0137205 -0.00189764 0.113346z"/>
  <polygon class="fil1 str0" points="0.615673,4.89218 10.8597,3.25336 10.6513,1.95082 10.3644,1.99672 10.5269,3.01234 0.856685,4.55936 0.694209,3.54374 0.407295,3.58964 "/>
  <polygon class="fil1 str0" points="0.118343,1.78345 10.3623,0.14463 10.5707,1.44717 10.2838,1.49306 10.1213,0.477445 0.451157,2.02446 0.613634,3.04008 0.32672,3.08598 "/>
  <rect class="fil2 str0" transform="matrix(2.86914 -0.459002 0.459002 2.86914 0.240001 2.54392)" width="0.0614409" height="0.0119449"/>
 </g>
</svg>
